<svg xmlns="http://www.w3.org/2000/svg" xmlns:xlink="http://www.w3.org/1999/xlink" id="Layer_1" x="0px" y="0px" viewBox="0 0 293.2 395.5" style="enable-background:new 0 0 293.2 395.5;" xml:space="preserve"> <style type="text/css"> .st0{fill:#FFFFFF;} </style> <g> <path class="st0" d="M216.4,113.2c0,0.1-0.1,0.2-0.1,0.3C216.4,113.5,216.4,113.3,216.4,113.2z"></path> <path class="st0" d="M214.6,68.7c0.1,0.2,0.3,0.7,0.5,1.1C214.9,69.4,214.8,69.1,214.6,68.7z"></path> <path class="st0" d="M208.2,51c-0.6-1.1-3.7-5-2.8-4c-0.8-1.1-1.6-2.1-1.7-2.1c1.2,1.5,0.6,0.9,1.1,1.6c-0.8-1-2-2.5-2.8-3.5 l0.2,0.1c-6.5-7.2-14.7-13.8-23.6-18.1c0.1,0,1.5,0.7,2.9,1.4c-0.8-0.4-1.9-1-2.8-1.4c0.4,0.2-3-1.4-1.9-0.8 c-11.5-5.7-36-6.5-36-6.5c-1.9,0.1-5.1,0.6-6.4,0.8c1.1-0.2,2.8-0.4,4-0.5c-1.4,0.2-2.5,0.3-3,0.3c-21,2.9-40,15.7-51.3,33.4l0,0 l0,0c-3.2,5.1-5.8,10.5-7.7,16.3c-4.7,14.4-4.8,30.9-0.1,45.4c0.1,0.3,0.7,2.1,0.7,2.2c-0.1-0.2,2.2,5.8,1.3,3.1 c0.4,1.1,1.8,3.8,1.9,4.3l0,0c-0.1-0.3-0.3-0.6-0.4-0.8c0.2,0.4,0.3,0.7,0.4,0.8l0,0c2.7,6.2,6.9,12.3,12.1,17.8 c0.3-0.2,0.9-0.3,0.9-0.3c3.1-1.6,14.1-7.7,17.3-9.4c-1.4,3.2-3.9,5.8-4,9.5c2.3-3.3,4.5-6.5,6.4-10c2.2-4.2,15.9-5.7,21.5-6.8 c1.2-0.7,2.5-1.7,2.4-2.4c-0.5-1.7-0.5-5.5-0.5-5.5c-0.1-0.5-0.2-1.2-0.2-1.4c-0.8,0.3-0.4,1.8-1,2.6c0,0-3.5,2.4-5.2,3.5 c-5.7,3-16.1,4.8-19.7,7.9c-2.5,2.1-7.4,5.8-15.2,9.9c-0.6,0.3-2.4,0.2-3.3-0.4c-2.6-2.9-4.9-6-6.5-9c-3.2-5.1-5.9-10.5-7.4-15.8 c-4.8-14-4.8-30-0.3-44.1c0.1-0.3,0.7-2.1,0.8-2.1c0.1-0.7,2.2-5.5,1.1-3c0.1-0.6,2.7-6.2,1.5-3.4c7-17.1,27.9-34.4,46-38.7 c11.6-3.3,23.5-3.4,35.2-0.9c-2-0.8,9.2,2.6,9.1,2.6c0.2,0.1,4.6,1.9,2.4,1c1.3,0.6,2.6,1.2,3.6,1.6c2.8,1.3,5.3,2.8,7.9,4.4 l-1.5-1c1.7,1.1,4.1,2.6,5.4,3.8l-1.8-1.2c3.6,2.5,5.8,4.4,8.6,7l-1.1-1c5.8,4.2,16.5,19.6,19.7,29.4c0.4,1.1,0.9,2.4,1.1,3.4 c6.2,17.5,0,49.1-9.1,58.9c-0.7,1.2-3.9,5.8-2.5,3.7c-0.5,0.7-1.1,1.4-1.4,1.8c-0.7,0.2-1.7,1.2-3.3,1.2 c-2.8,0.1-15.7-5.9-18.1-7.4c-4.8-3-7.7-7.6-13-8.6c-0.9-0.2-3.4-0.9-5.6-1.8l0,0l-3.9-1.3l-3-1.7c0,0-1.6-2.1-1.9-2.5 c-0.4-0.7-0.3-2.5-0.3-2.5s0.5,1.2,1,1.9c0.6,0.6,3.2,2.7,4.1,3c0-0.2,0-0.3,0-0.3s0.9-7.8,20.8-6.1c7.9,0.7,10-1.3,10.7-3.5 c0.1-0.4,0.2-0.8,0.4-1c2.2,0,4.1-0.1,5.4,0.1c2.4,0.4,4.4-1.9,3.7-4.2c-1.9-5.7-6.7-12.2-19.4-4.5c-2,1.2-2.1,4.1-0.2,5.4 c1.3,0.9,3.1,2,5.4,2.6c0,0.2,0,0.4,0,0.5c-0.4,1.5-2.1,3.1-7.4,3c-5.8-0.1-11.8-2.5-17.2-1.9c-0.6,0.1-2.2,0.5-2.9,1.1 c0-0.4,0.7-0.9,1.1-1.2c0.3-0.3,0.6-0.5,0.9-0.7c4.7-8.8,14.8-15.8,18.1-18.3c1.5-1.2,2.5-2.1,3-2.7c0.1-0.2,0.3-0.3,0.6-0.6 c0.3,0,0.6,0.1,0.9,0.1c8.4,1.3,15,0.4,18.6-0.5c2.2-0.6,2.7-4.4,1-6c-3.8-3.6-11-9.1-21-10.5s-15.5,4.9-18.2,9.4 c-1.1,1.9,0.3,4.6,2.4,5.2c2.4,0.7,5.7,1,10.1,1.5c0,0.4,0,0.7-0.1,0.8c-1.7,2.9-4.5,5.9-12.5,9.7c-4,1.9-6.5,5.5-8,9.1 c-0.2,1-0.3,1.7-0.3,1.7l-1.2,3.3c0-2,0.2-3.1,0.4-3.7c0.7-6.9,1-15.1-0.5-19.3c-3-8.7-17.8-16.7-13.8-22.5 c15.4,1.3,24.4-5.1,27.7-7.8c1-0.8,2.1-3.1,1.2-4.1c-4-4.6-18-16.2-35.7-16.2c-16.7,0-24.9,13.2-26.9,20.3c-0.4,1.6,2.7,5.1,4,5.5 c5,1.8,9.6,0.6,18.5,1.1c0,0.1,0,0.2,0,0.3c-0.2,2.3-1,4.8,1.2,7.7c3.1,4.1,15.8,9.7,15.7,21.6c0,4.6-0.5,9-1.1,12.8l0,0l0,0l0,0 l0,0c-0.1,0.3-0.5,2.1-0.2,4.4c0,0-1.4-3.9-1.1-5.3c0-0.1,0-0.1,0-0.2c-2.3-1.9-5-3.5-8.1-4.1c-9.4-1.9-14.5,2.1-16.2-1.7 c-0.1-0.2,0.1-0.6,0.4-1.1c7.2,0.2,11.8-2.5,14-4.3c1-0.8,1-2.3,0.1-3.2c-21.2-20.1-30-4.5-33,3.8c-0.5,1.5,0.8,3.1,2.4,2.8 c2.2-0.4,5.6-0.5,10.9,0.2c0.2,0.5,0.4,0.8,0.4,1c-0.1,1.6,0.6,4.7,6,6.2c5.6,1.6,10.4-0.3,13.1,1.5c1.2,0.3,3.4,0.6,4.7,0 c-0.8,1.6-2.3,1.8-3.4,1.7c0.3,0.6,0.5,1.4,0.7,2.3c0.5,2.9,2.2,5.4,2.7,11.5c0.2,1.2,0.5,3,0.3,3.6c-0.3,0.9-1.6,2.7-1.6,2.7 c-0.4,1.2-1.8,2.8-2.2,3.3c-0.1,0.1-7.9,2.6-10.4,4.9c-3.3,3.1-6.6,6-8.9,9.9c-0.9,1.5-1.4,3.1-2.1,4.7c0.2,0.1,0.5,0.3,0.7,0.4 c3.3-4.2,5.6-9.5,10.5-12.7c0.3-0.2,0.9,0,1.4-0.1c-0.9,6-2.8,14.7-9,17.9c-0.8,0.4-1.6,2.7-2.2,3.5c0.1,0,0.2,0.1,0.3,0.1 c1.3-1,2.8-3.1,4.1-4c0.2,0.1,0.3,0.9,0.2,1.5c-0.2,1-0.7,1.8-0.9,2.9c1.8,0,1.7-2.6,2-3.5c0.2-0.6-0.1-0.2,0.3-0.6 c2.4-2.8,5.2-10.2,6.1-13.6c0.5-1.8,1.1-2.9,1.3-4.4c0.4-2.3,1.2-2.9,4.7-4.4c0.8-0.4,4.1-1.6,5.6-3.8c0.3,0.4,1,0.8,1,1.1 c0.3,3.8-1.1,7.8-2.2,11.3c-3.6,11.7-6.7,11.8-10.1,14c0.2,0.2,0.3,0.3,0.5,0.5c1.5-0.7,3-1.3,4.6-2c0.1,0.1,0.3,0.1,0.4,0.2 c-1,1.8-1.9,3.6-3.1,5.2c-1.7,2.3-2.7,5.9-1.9,8.3c0.6-2.2,1.3-4.3,1.9-6.5c0.3,0,0.6,0,0.9,0c0.5,1.7,1,3.4,1.5,5.2 c0.8-1.7,0.1-3.3-0.2-4.9c-0.1-0.7-0.4-1.5-0.2-2c0.6-1.5,1.4-3,2.2-4.4c0.2,0,0.3-0.1,0.5-0.1c0.4,2,0.9,4,1.3,5.9 c0.3-0.7,0.7-1.6,0.5-2.3c-0.3-1.6-0.9-3.2-1.3-4.8c-0.1-0.6-0.2-1.4,0.1-2c2.5-5.2,6.9-15.5,6.6-21.2c-0.1-1.2,0.1-2.1,0.7-3l0,0 c0,0,1.3-2.7,2.3-3.4s1-0.5,1-0.5l-0.4,0.8c0,0-0.7,0.8-0.9,2.1l0,0c0.6,3.7-0.5,7.8-0.3,11.5c0,0.7,1.4,5.3,1.6,9.6 c0.3,5.8-0.5,11.8-0.4,13.8c-0.5,1.6-2.3,3.2-3.7,5.1c-0.4,0.5-0.8,0.9-1.1,1.4c0.1,0,0.2,0.1,0.3,0.1c1.5-1,3.3-3.5,4.9-4.5 c0.2,2.9,0.1,7.2,0.3,10.1c0.3,0,0.6-0.8,0.8-0.8c0.2-2.8,0.2-17.3,0.4-20.2c0.9,1.4,3.8,7,5.3,7.9c-0.1-0.1,0.7-0.1,0.5-0.3 c-1.5-2.7-4.3-6.9-5-11.2c-0.5-6.1-0.1-9.8,0.1-12.1c0.3-3.3,0-4.6,0.4-8.2c0-0.2,0.4-0.5,0.9-0.7c1.7,1.6,1.9,3,2.6,5.2 c0.4,4.4,2.5,7.3,5,12.5c0.3,0.6,0.3,5,0.2,5.6c-0.4,1.6-0.9,3.2-1.2,4.8c-0.1,0.7,0.2,1.5,0.4,2.3c0.7-4.4,0.8-4.7,2-5.8 c1.8,2.7,2.8,5.6,1.5,8.9c-0.2,0.6,0.1,1.4,0.2,2.1c0.2,0,0.3,0,0.5,0c0.2-1.8,0.1-3.7,2-5.2c0.5,1.3,0.9,2.4,1.2,3.5 s0.5,2.2,0.7,3.3c0.7-3-0.1-6.3-1.9-8.6c-1.3-1.6-2.3-4.5-2.6-6.5c1.6,0.7,3.4,2.1,4.9,2.8c0.2-0.2,0,0,0.2-0.2 c-0.9-0.9-4.4-3.4-5.1-4.2c-2-6-2-4.8-3.1-8.4c-0.9-3-1.7-6.7-1.7-10.1l0,0c0-0.1-0.6-2.3-0.7-2.4c-0.1-0.1-0.6-1.1-0.8-1.4 s-0.1-0.5-0.2-0.8c0-0.4,0-0.9,0-1c0-0.2,0-0.7,0-0.7l-0.3-1.1c0,0,0.7,0.7,0.8,1c0.1,0.2,0.4,1.3,0.4,1.4c0,0.2,0.2,0.3,0.3,0.9 c0.2,0.5,0.5,1.6,0.5,1.6c1.5,3.2,5.4,7.4,8.2,9.6c1.1,0.9,1.6,1.8,1.7,3.3c0.2,4,5.3,12.7,7.5,16.1c0.9,1.4,1.7,2.6,1.9,4.3 c0.1,0.6,0,1.4,0.3,2c0.1-0.1,0.8-0.3,0.9-0.4c-0.2-1-0.3-2-0.5-3c0.2-0.1,0.3-0.2,0.5-0.4c1.3,1,2.5,1.9,3.8,2.9 c0.6-0.9-1-2.1-1.9-2.6c-6.1-3.2-9.6-14.1-10.6-20c5.6,3.2,8.9,4.8,12.6,9.1c0.1-2.4-0.9-2.3-2.3-3.9c-3-3.4-6.6-5.2-9.9-8.4 c-2.7-2.6-7.5-5.2-8.9-9v-0.1l0,0c-0.1-0.2-0.2-0.7-0.1-1.1c0.1-0.5-0.1-2.4-0.1-2.4s-0.8-1.9-1.3-2.5c0.7,0,0.9,0.4,0.9,0.4 s1.2,1.4,1.3,1.8c0.1,0.4,0.1,2,0.3,2.4c0.1,0.2,0.3,0.5,0.4,0.7l0,0c4.4-0.4,7.5,0.6,15.6,3.4c1.6,0.5,2.6,1.7,3.4,3.2 c2,3.6,9.9,9.7,12,13.2c0.1-3.7-7.7-8.8-9.1-12.2c0.2-0.3,0.1-0.8,0.3-0.7c3,1.7,17.8,7.9,21.1,8.3c-0.1-0.1,0.7-0.5,0.9-0.4 c6.2-7.4,11.3-16.3,13.9-25.5l-0.8,2.1c0.4-1.2,0.9-2.8,1.2-4c-0.1,0.4-0.3,1.5-0.4,2.1c1.9-5,3.8-17.1,3.4-24 C220.9,77.8,211.7,55.4,208.2,51z M184.8,102.4c-1.2-0.3-2.3-0.7-3.2-1.3c0,0-3-2.7-0.3-2.6c2.7,0.1,5.4,0.9,9.4,0 c3.9-0.9,8.1,5.1,6,5c-0.9,0-3.1,0-5.6-0.1c0.7-0.7,1.5-0.6,2.4-1.4c-1.5-2.6-9.6-1.6-9.6-1.6S184.4,101.4,184.8,102.4z M174,78.1 c0,0.3,0.3,1.1,0.6,2.1c-7.2-0.6-9.6-1-9.6-1s-3-2.1-0.5-3.3c2.4-1.1,5.7,0.8,10.7-0.9c5-1.7,21.3-0.8,23.4,2.3 c2.1,3.2-0.3,3.8-0.3,3.8s-5.7,1.6-15.1,0.4c2.1-1.6,4.8-3.5,4.2-3.8C183.8,76.4,181.1,74.9,174,78.1z M133.8,54 c-7.6-0.3-10.7-0.2-11,0.5c0.4,1.3,2.6,1.6,4.1,2.8c-6.4-0.3-11.2-0.2-13.5-0.2c-1.2,0-2.4-0.6-2.9-1.6c-0.7-1.2-0.9-2.9,2.2-3.7 c5.3-1.3,15.3,0.6,28.6-1c11.9-1.4,24-3.7,24.3,0.5c0.1,1.1-0.6,2.1-1.6,2.6c-2.7,1.4-10,4.5-20.5,4.4c1.9-1.1,4.2-2.5,5.6-3.8 C148.1,51.5,140.1,54.3,133.8,54z M111.7,89.8c-0.1,0.6,0.4,1.8,1,2.9c-7-0.8-9-0.8-9-0.8s-2.5-1.1,0.1-2.3s3.6,0.8,6-3.5 c2.9-5.3,23.4,0.9,19,4.6c0,0-2.9,2-8.5,2.4c1.5-1.5,3.2-3.1,2.9-3.5C121.5,87.2,112.4,87,111.7,89.8z M202.8,135.3 c-0.1,0-0.1,0-0.2,0c0.6-0.7,0.4-0.3,0.8-0.8C203.2,134.7,203,135,202.8,135.3z"></path> <path class="st0" d="M214.2,67l0.6,2.1c-0.1-0.5-0.3-1.1-0.5-1.6C214.3,67.3,214.3,67.2,214.2,67z"></path> <path class="st0" d="M122.9,23c1.1-0.3,4.1-1.2,5.3-1.5c-0.5,0.1-1,0.2-1.5,0.3C125.4,22.2,124.1,22.5,122.9,23z"></path> </g> <g> <path class="st0" d="M58.7,241.9c-1.3,0-2.2,0.5-2.8,1.7l-21.7,43.9l-21.7-43.9c-0.7-1.1-1.5-1.7-2.8-1.7c-0.9,0-1.6,0.3-2.2,0.9 c-0.7,0.7-0.9,1.3-0.9,2.2v49.5c0,0.9,0.3,1.6,0.9,2.2c0.7,0.7,1.3,0.9,2.2,0.9s1.6-0.3,2.2-0.9c0.5-0.5,0.9-1.3,0.9-2.2v-36.7 L31.3,296c0.3,0.5,0.7,1,1.2,1.3s1.1,0.5,1.6,0.5s1.1-0.2,1.6-0.5s0.9-0.8,1.2-1.3l18.5-38.2v36.8c0,0.9,0.3,1.6,0.9,2.2 c0.7,0.7,1.3,0.9,2.2,0.9s1.6-0.3,2.2-0.9c0.5-0.5,0.9-1.3,0.9-2.2v-49.5c0-0.9-0.3-1.6-0.9-2.2C60.4,242.3,59.6,241.9,58.7,241.9z "></path> <path class="st0" d="M76.2,241.9c-0.9,0-1.6,0.3-2.3,0.9c-0.7,0.7-0.9,1.3-0.9,2.2v49.5c0,0.9,0.3,1.6,0.9,2.2 c0.7,0.7,1.4,0.9,2.3,0.9s1.6-0.3,2.2-0.9c0.5-0.5,0.9-1.3,0.9-2.2v-49.4c0-0.9-0.3-1.6-0.9-2.2C77.7,242.3,76.9,241.9,76.2,241.9z "></path> <path class="st0" d="M101.3,254.3c2-2,4.4-3.4,7-4.6c2.6-1.1,5.6-1.6,8.6-1.6c2.9,0,5.7,0.5,8.4,1.6c2.6,1.1,5,2.7,7.2,4.8 c0.7,0.7,1.3,0.9,2.2,0.9s1.6-0.3,2.2-0.9c0.7-0.7,1-1.3,1-2.2s-0.3-1.6-1-2.3c-2.7-2.7-5.8-4.7-9.1-6.1c-3.4-1.4-7-2.1-10.8-2.1 c-3.9,0-7.6,0.7-11,2.1s-6.4,3.4-8.9,5.9s-4.6,5.4-6.1,8.8c-1.5,3.4-2.2,7-2.2,10.9s0.8,7.6,2.2,11c1.5,3.4,3.5,6.4,6.1,8.9 c2.5,2.5,5.6,4.6,8.9,6.1s7.1,2.2,11,2.2c3.8,0,7.4-0.7,10.8-2.1s6.4-3.5,9.1-6.2c0.7-0.7,1-1.3,1-2.2s-0.3-1.6-1-2.2 c-0.7-0.7-1.3-1-2.2-1s-1.6,0.3-2.2,1c-2.1,2.1-4.5,3.7-7.2,4.8c-2.6,1.1-5.4,1.6-8.4,1.6s-5.9-0.5-8.5-1.7s-5-2.7-7-4.7 s-3.6-4.4-4.7-7c-1.2-2.6-1.7-5.6-1.7-8.5c0-3,0.5-5.8,1.7-8.4C97.8,258.6,99.3,256.3,101.3,254.3z"></path> <path class="st0" d="M174.8,248.3c0.9,0,1.6-0.3,2.3-0.9c0.7-0.5,0.9-1.3,0.9-2.2s-0.3-1.6-0.9-2.2c-0.7-0.7-1.4-0.9-2.3-0.9h-24.3 c-0.9,0-1.6,0.3-2.3,0.9c-0.7,0.7-0.9,1.3-0.9,2.2v49.3v0.1v0.1c0,0.9,0.3,1.6,0.9,2.2c0.7,0.7,1.4,0.9,2.3,0.9h24.3 c0.9,0,1.6-0.3,2.3-0.9c0.7-0.7,0.9-1.3,0.9-2.2s-0.3-1.6-0.9-2.3c-0.7-0.7-1.4-0.9-2.3-0.9h-21.2v-19h17.9c0.9,0,1.5-0.3,2.2-0.9 c0.7-0.7,0.9-1.3,0.9-2.2s-0.3-1.6-0.9-2.2c-0.7-0.5-1.3-0.9-2.2-0.9h-17.9v-18.2h21.2V248.3z"></path> <path class="st0" d="M206.9,291.6h-15.8v-46.5c0-0.9-0.3-1.6-0.9-2.2c-0.5-0.5-1.3-0.9-2.2-0.9s-1.6,0.3-2.2,0.9 c-0.7,0.5-0.9,1.3-0.9,2.2v49.5c0,0.9,0.3,1.6,0.9,2.2c0.7,0.7,1.3,0.9,2.2,0.9h18.8c0.9,0,1.6-0.3,2.3-0.9 c0.7-0.7,0.9-1.3,0.9-2.2s-0.3-1.6-0.9-2.2C208.5,291.9,207.8,291.6,206.9,291.6z"></path> <path class="st0" d="M218,241.9c-0.9,0-1.6,0.3-2.3,0.9c-0.7,0.7-0.9,1.3-0.9,2.2v49.5c0,0.9,0.3,1.6,0.9,2.2 c0.7,0.7,1.4,0.9,2.3,0.9c0.9,0,1.6-0.3,2.2-0.9c0.7-0.7,0.9-1.3,0.9-2.2v-49.4c0-0.9-0.3-1.6-0.9-2.2S218.9,241.9,218,241.9z"></path> <path class="st0" d="M284.3,259c-1.4-3.4-3.5-6.3-6-8.9c-2.5-2.5-5.4-4.5-8.9-6c-3.4-1.4-7-2.2-10.8-2.2c-3.9,0-7.5,0.8-10.9,2.2 s-6.3,3.5-8.9,6c-2.5,2.5-4.5,5.4-6,8.9c-1.4,3.4-2.2,7-2.2,10.8c0,3.9,0.8,7.5,2.2,10.9s3.5,6.3,6,8.9c2.5,2.5,5.4,4.5,8.9,6 c3.4,1.4,7.1,2.2,10.9,2.2s7.4-0.8,10.8-2.2c3.4-1.4,6.3-3.5,8.9-6c2.5-2.5,4.5-5.4,6-8.9c1.4-3.4,2.2-7.1,2.2-10.9 S285.7,262.4,284.3,259z M278.5,278.3c-1.1,2.6-2.7,4.9-4.7,7c-2,2-4.2,3.5-6.9,4.7c-2.6,1.1-5.4,1.7-8.4,1.7 c-2.9,0-5.8-0.5-8.4-1.7c-2.6-1.1-4.9-2.7-7-4.7c-2-2-3.5-4.2-4.7-7c-1.1-2.6-1.7-5.4-1.7-8.4s0.5-5.8,1.7-8.4 c1.1-2.6,2.7-4.9,4.7-6.9c2-2,4.2-3.5,7-4.7c2.6-1.1,5.4-1.7,8.4-1.7c2.9,0,5.8,0.5,8.4,1.7c2.6,1.1,4.9,2.7,6.9,4.7 c2,2,3.5,4.2,4.7,6.9c1.1,2.6,1.7,5.4,1.7,8.4S279.6,275.7,278.5,278.3z"></path> </g> <g> <path class="st0" d="M78.6,197.3c-2.2-1.3-4.7-2-7.7-2h-5.8H61c0.1,4.7,0.2,9.4,0.2,13.9s-0.1,9.3-0.2,13.9h4.1h5.3 c3.2,0,5.8-0.7,8.1-2c2.2-1.3,3.8-3,5-5.1c1.1-2.2,1.6-4.4,1.6-6.9c0-2.4-0.5-4.7-1.6-6.7S80.8,198.6,78.6,197.3z M79.9,215.6 c-1,2-2.3,3.6-4.1,4.9c-1.9,1.2-4,1.9-6.6,1.9h-4c-0.1-5.3-0.1-9.7-0.1-13.1c0-3.4,0-7.7,0.1-13.1h4.4c2.5,0,4.7,0.7,6.4,1.9 c1.7,1.2,3.2,2.8,4,4.8c0.9,2,1.4,4.1,1.4,6.4C81.3,211.5,80.9,213.6,79.9,215.6z"></path> <path class="st0" d="M89.1,195.2c0.1,4.7,0.2,9.4,0.2,13.9s-0.1,9.3-0.2,13.9h4.1c-0.1-3.8-0.1-8.5-0.1-13.9c0-5.6,0-10.2,0.1-13.9 H89.1z"></path> <path class="st0" d="M115.2,211.6c-0.9-0.8-1.9-1.4-2.8-1.9s-2.4-1.1-4-1.6c-2.1-0.8-3.7-1.5-4.9-2.2s-2-1.4-2.5-2.4 c-0.3-0.8-0.5-1.4-0.5-2.2c0-1,0.3-2,1-2.7c0.7-0.9,1.5-1.5,2.7-2c1.1-0.4,2.4-0.8,3.8-0.8c2.1,0,3.7,0.4,5,1.3 c1.3,0.9,2.3,2,2.8,3.3h0.8c-0.4-1.3-1.3-2.5-2.6-3.6c-1.3-1-3-1.6-5.2-1.7c-0.2,0-0.7,0-1.2,0c-2.1,0-3.9,0.3-5.6,1.1 c-1.6,0.8-2.9,1.6-3.8,2.8s-1.3,2.5-1.3,4c0,1.4,0.3,2.5,1.1,3.5c0.8,0.9,1.6,1.6,2.7,2.2c1.1,0.5,2.5,1.2,4.4,2 c2,0.8,3.5,1.4,4.6,2.1c1.1,0.7,2.1,1.4,2.7,2.3c0.5,0.8,0.9,1.6,0.9,2.5s-0.2,1.7-0.8,2.5s-1.2,1.4-2.2,1.9 c-1,0.4-2.1,0.8-3.5,0.8c-2.6,0-4.8-0.7-6.3-1.9c-1.6-1.2-2.7-2.7-3.3-4.6h-0.8c0.3,2.1,1.4,3.8,3.3,5.2s4.4,2.1,7.7,2.1 c2.2,0,3.9-0.3,5.4-1.1c1.5-0.8,2.6-1.6,3.3-2.8c0.8-1.1,1.1-2.3,1.1-3.6c0-0.7-0.1-1.3-0.3-1.9C116.6,213.2,116,212.3,115.2,211.6 z"></path> <path class="st0" d="M117.2,196.1h10.3c0.1,5.3,0.1,9.6,0.1,13c0,4.6-0.1,9.4-0.2,14.2h4.1c-0.1-4.8-0.2-9.5-0.2-14.2 c0-3.3,0-7.6,0.1-13h10.2v-0.9h-24.5L117.2,196.1L117.2,196.1z"></path> <path class="st0" d="M166.6,218.8c-1-1.6-2-3-2.8-4c-0.9-1-2.1-1.7-3.6-2.3c2.1-0.5,3.7-1.6,4.8-3c1.1-1.5,1.6-3.2,1.6-5 c0-1.5-0.4-3-1.2-4.5c-0.9-1.4-2.1-2.5-3.7-3.4c-1.6-0.9-3.6-1.3-5.8-1.3h-6.5h-4.1c0.1,4.7,0.2,9.4,0.2,13.9s-0.1,9.3-0.2,13.9 h4.1c-0.1-4.2-0.1-7.7-0.1-10.3h7.7h0.1c0.9,0.1,1.7,0.5,2.4,1.1c0.7,0.7,1.2,1.3,1.6,2.1c0.4,0.8,0.9,1.7,1.4,2.9 c0.4,1,0.8,1.6,1,2.1c0.2,0.4,0.4,0.8,0.8,1.1c0.8,1.1,2,1.6,3.6,1.6c1,0,2-0.2,2.9-0.5c-0.9-0.2-1.5-0.8-2.2-1.4 C168,221,167.3,220.1,166.6,218.8z M156.9,212c-0.4,0-0.8,0-1,0h-6.6v-4c0-4.2,0-8.2,0.1-11.8h5.8c1.6,0,3.2,0.4,4.2,1.2 c1.2,0.8,2.1,1.7,2.7,3c0.5,1.2,0.9,2.6,0.9,4c0,1.2-0.2,2.4-0.7,3.6c-0.4,1.1-1.2,2.1-2.1,2.8C159.2,211.5,158.1,211.9,156.9,212z "></path> <path class="st0" d="M173.5,195.2c0.1,4.7,0.2,9.4,0.2,13.9s-0.1,9.3-0.2,13.9h4.1c-0.1-3.8-0.1-8.5-0.1-13.9 c0-5.6,0-10.2,0.1-13.9C177.7,195.2,173.5,195.2,173.5,195.2z"></path> <path class="st0" d="M195.3,196.1h10.2v-0.9h-24.7v0.9h10.3c0.1,5.3,0.1,9.6,0.1,13c0,4.6-0.1,9.4-0.2,14.2h4.1 c-0.1-4.8-0.2-9.5-0.2-14.2C195.2,205.8,195.2,201.4,195.3,196.1z"></path> <path class="st0" d="M230.4,202.4c-1.2-2.3-2.8-4.2-5-5.7s-4.9-2.2-7.9-2.2c-0.5,0-1,0-1.2,0c-2.8,0.2-5.2,1-7.2,2.3s-3.5,3-4.5,5 c-1,2.1-1.4,4.2-1.4,6.5c0,2.6,0.5,5,1.7,7.4c1.2,2.3,2.8,4.2,5.1,5.7s4.9,2.2,7.9,2.2c0.8,0,1.6-0.1,2.6-0.2 c2.5-0.3,4.6-1.2,6.3-2.5s3-3,3.9-5s1.3-4,1.3-6.3C232.2,207.2,231.6,204.7,230.4,202.4z M227.5,216.6c-0.5,1.7-1.5,3.2-2.7,4.4 c-1.2,1.2-2.6,1.9-4.4,2.1c-0.5,0.1-1,0.1-1.5,0.1c-2.4,0-4.5-0.8-6.3-2.3c-1.9-1.5-3.2-3.5-4.1-5.9c-1-2.4-1.4-4.9-1.4-7.5 c0-2.2,0.3-4.1,1-5.9c0.7-1.7,1.7-3.3,3.2-4.4s3.2-1.7,5.2-1.9c2.4-0.1,4.6,0.5,6.3,2c1.9,1.5,3.2,3.5,4.1,6s1.4,5,1.4,7.7 C228.4,212.9,228.1,214.8,227.5,216.6z"></path> </g> <g> <path class="st0" d="M89.8,380.9l-2.3-6c-2.6-7-4.7-12.6-6.2-16.9H77c1.5,3.8,3.1,7.8,4.7,12.1c1.6,4.2,3.5,9.4,5.7,15.4h1.8 L99,358h-1L89.8,380.9z"></path> <path class="st0" d="M102.4,365.8c0.1,3.2,0.1,6.5,0.1,9.8c0,3.2,0,6.5-0.1,9.8h4c-0.1-3.8-0.1-6.7-0.1-8.6c0-4.1,0.1-7.8,0.2-11.1 H102.4z"></path> <path class="st0" d="M104.4,361.2c0.6,0,1.1-0.2,1.5-0.6c0.4-0.4,0.6-0.9,0.6-1.5c0-0.6-0.2-1.1-0.6-1.6c-0.4-0.4-0.9-0.6-1.5-0.6 c-0.6,0-1.1,0.2-1.6,0.6c-0.4,0.4-0.6,1-0.6,1.6c0,0.6,0.2,1.1,0.6,1.5C103.2,361,103.8,361.2,104.4,361.2z"></path> <path class="st0" d="M119.9,381l-1.3-3.1c-2.2-5.3-3.8-9.3-4.8-12h-4c3.5,8.1,6.2,14.7,8.1,19.7h1.4l7-19.6h-1L119.9,381z"></path> <path class="st0" d="M129.3,365.8c0.1,3.2,0.1,6.5,0.1,9.8c0,3.2,0,6.5-0.1,9.8h4c-0.1-3.8-0.1-6.7-0.1-8.6c0-4.1,0.1-7.8,0.2-11.1 H129.3z"></path> <path class="st0" d="M160.7,367c-1.5-1-3.2-1.4-5.2-1.4c-1.9,0-3.5,0.4-4.6,1.1c-1.1,0.7-1.9,1.5-2.5,2.4c0-3.7,0.1-8.1,0.2-13.2 h-4.1c0.1,3.7,0.2,8.6,0.2,14.8c0,6.2-0.1,11.1-0.2,14.8l4-1.8c0.6,0.5,1.4,1,2.5,1.4s2.4,0.7,3.9,0.7c2.2,0,4.1-0.5,5.6-1.4 c1.5-0.9,2.7-2.2,3.5-3.7c0.8-1.5,1.2-3.2,1.2-4.9s-0.4-3.4-1.1-5C163.2,369.2,162.1,367.9,160.7,367z M160.5,380.1 c-0.5,1.4-1.3,2.5-2.3,3.4c-1,0.9-2.3,1.4-3.7,1.5c-1.5,0.1-2.7-0.1-3.7-0.6c-1-0.5-1.7-1.1-2.2-1.7c-0.1-3.8-0.1-8-0.1-12.5 c0.5-0.9,1.3-1.8,2.3-2.7c1-0.8,2.2-1.2,3.7-1.2c1.4,0,2.6,0.4,3.7,1.3s1.8,2,2.3,3.5c0.5,1.4,0.8,2.9,0.8,4.5 C161.2,377.2,161,378.7,160.5,380.1z"></path> <path class="st0" d="M168.5,365.8c0.1,3.2,0.1,6.5,0.1,9.8c0,3.2,0,6.5-0.1,9.8h4c-0.1-3.8-0.1-6.7-0.1-8.6c0-4.1,0.1-7.8,0.2-11.1 H168.5z"></path> <path class="st0" d="M170.4,361.2c0.6,0,1.1-0.2,1.5-0.6c0.4-0.4,0.6-0.9,0.6-1.5c0-0.6-0.2-1.1-0.6-1.6c-0.4-0.4-0.9-0.6-1.5-0.6 c-0.6,0-1.1,0.2-1.6,0.6c-0.4,0.4-0.6,1-0.6,1.6c0,0.6,0.2,1.1,0.6,1.5C169.3,361,169.8,361.2,170.4,361.2z"></path> <path class="st0" d="M194.9,373c0-1.1-0.3-2.2-0.9-3.4c-0.6-1.1-1.5-2.1-2.8-2.9c-1.3-0.8-2.9-1.2-4.9-1.2c-2.2,0-4.1,0.5-5.7,1.5 c-1.6,1-2.8,2.2-3.6,3.8c-0.8,1.6-1.2,3.2-1.2,5c0,1.7,0.4,3.3,1.2,4.9c0.8,1.5,1.9,2.7,3.5,3.7c1.6,0.9,3.4,1.4,5.6,1.4 c0.3,0,0.7,0,1.4-0.1c2-0.2,3.7-0.8,4.9-1.9c1.2-1.1,2-2.4,2.4-3.8h-0.6c-0.4,1.3-1.1,2.4-2.2,3.2c-1.1,0.9-2.5,1.3-4.2,1.3 c-1.8,0-3.4-0.5-4.6-1.4c-1.3-0.9-2.2-2.2-2.9-3.7c-0.6-1.5-0.9-3.1-0.9-4.8l15.4-0.8L194.9,373z M179.6,373.8c0.2-2.2,0.8-4,2-5.5 c1.2-1.5,2.8-2.2,4.8-2.2c2.4,0,4,0.9,4.7,2.6c0.7,1.7,1,3.2,1,4.5L179.6,373.8z"></path> <path class="st0" d="M215.2,368.7c-0.7-1.1-1.5-1.9-2.6-2.4c-1.1-0.5-2.2-0.8-3.5-0.8c-1.6,0-3,0.3-4.2,0.9 c-1.2,0.6-2.3,1.3-3.2,2.1l0.1-2.7h-4.1c0.1,3.2,0.1,6.5,0.1,9.8c0,3.2,0,6.5-0.1,9.8h4c-0.1-3.9-0.1-6.8-0.1-8.8 c0-1.6,0-4,0.1-7.2c0.7-0.8,1.7-1.5,2.8-2.2s2.3-1,3.5-1c1.5,0,2.6,0.5,3.3,1.5s1.1,2.6,1.1,4.9v12.8h3.8v-12.7 C216.2,371.1,215.9,369.8,215.2,368.7z"></path> <polygon class="st0" points="129.7,361.2 131.5,361.2 134.4,355.8 131.1,355.8 "></polygon> </g> </svg>