<?xml version="1.0" encoding="UTF-8"?> <svg xmlns="http://www.w3.org/2000/svg" xmlns:xlink="http://www.w3.org/1999/xlink" version="1.1" id="Layer_1" x="0px" y="0px" viewBox="0 0 436.7 155.4" style="enable-background:new 0 0 436.7 155.4;" xml:space="preserve"> <style type="text/css"> .st0{fill:#1D1D1B;} </style> <g> <path class="st0" d="M147.5,96.2c0,0.1-0.1,0.2-0.1,0.3C147.5,96.5,147.5,96.3,147.5,96.2z"></path> <path class="st0" d="M145.7,51.7c0.1,0.2,0.3,0.7,0.5,1.1C146,52.4,145.9,52.1,145.7,51.7z"></path> <path class="st0" d="M139.3,34c-0.6-1.1-3.7-5-2.8-4c-0.8-1.1-1.6-2.1-1.7-2.1c1.2,1.5,0.6,0.9,1.1,1.6c-0.8-1-2-2.5-2.8-3.5 l0.2,0.1c-6.5-7.2-14.7-13.8-23.6-18.1c0.1,0,1.5,0.7,2.9,1.4c-0.8-0.4-1.9-1-2.8-1.4c0.4,0.2-3-1.4-1.9-0.8 c-11.5-5.7-36-6.5-36-6.5c-1.9,0.1-5.1,0.6-6.4,0.8c1.1-0.2,2.8-0.4,4-0.5c-1.4,0.2-2.5,0.3-3,0.3C45.5,4.2,26.5,17,15.2,34.7 c0,0,0,0,0,0c0,0,0,0,0,0C12,39.8,9.4,45.2,7.5,51C2.8,65.4,2.7,81.9,7.4,96.4c0.1,0.3,0.7,2.1,0.7,2.2c-0.1-0.2,2.2,5.8,1.3,3.1 c0.4,1.1,1.8,3.8,1.9,4.3v0c-0.1-0.3-0.3-0.6-0.4-0.8c0.2,0.4,0.3,0.7,0.4,0.8v0c2.7,6.2,6.9,12.3,12.1,17.8 c0.3-0.2,0.9-0.3,0.9-0.3c3.1-1.6,14.1-7.7,17.3-9.4c-1.4,3.2-3.9,5.8-4,9.5c2.3-3.3,4.5-6.5,6.4-10c2.2-4.2,15.9-5.7,21.5-6.8 c1.2-0.7,2.5-1.7,2.4-2.4c-0.5-1.7-0.5-5.5-0.5-5.5c-0.1-0.5-0.2-1.2-0.2-1.4c-0.8,0.3-0.4,1.8-1,2.6c0,0-3.5,2.4-5.2,3.5 c-5.7,3-16.1,4.8-19.7,7.9c-2.5,2.1-7.4,5.8-15.2,9.9c-0.6,0.3-2.4,0.2-3.3-0.4c-2.6-2.9-4.9-6-6.5-9c-3.2-5.1-5.9-10.5-7.4-15.8 c-4.8-14-4.8-30-0.3-44.1c0.1-0.3,0.7-2.1,0.8-2.1c0.1-0.7,2.2-5.5,1.1-3c0.1-0.6,2.7-6.2,1.5-3.4c7-17.1,27.9-34.4,46-38.7 C69.6,1.6,81.5,1.5,93.2,4c-2-0.8,9.2,2.6,9.1,2.6c0.2,0.1,4.6,1.9,2.4,1c1.3,0.6,2.6,1.2,3.6,1.6c2.8,1.3,5.3,2.8,7.9,4.4l-1.5-1 c1.7,1.1,4.1,2.6,5.4,3.8l-1.8-1.2c3.6,2.5,5.8,4.4,8.6,7l-1.1-1c5.8,4.2,16.5,19.6,19.7,29.4c0.4,1.1,0.9,2.4,1.1,3.4 c6.2,17.5,0,49.1-9.1,58.9c-0.7,1.2-3.9,5.8-2.5,3.7c-0.5,0.7-1.1,1.4-1.4,1.8c-0.7,0.2-1.7,1.2-3.3,1.2 c-2.8,0.1-15.7-5.9-18.1-7.4c-4.8-3-7.7-7.6-13-8.6c-0.9-0.2-3.4-0.9-5.6-1.8h0l-3.9-1.3l-3-1.7c0,0-1.6-2.1-1.9-2.5 c-0.4-0.7-0.3-2.5-0.3-2.5s0.5,1.2,1,1.9c0.6,0.6,3.2,2.7,4.1,3c0-0.2,0-0.3,0-0.3s0.9-7.8,20.8-6.1c7.9,0.7,10-1.3,10.7-3.5 c0.1-0.4,0.2-0.8,0.4-1c2.2,0,4.1-0.1,5.4,0.1c2.4,0.4,4.4-1.9,3.7-4.2c-1.9-5.7-6.7-12.2-19.4-4.5c-2,1.2-2.1,4.1-0.2,5.4 c1.3,0.9,3.1,2,5.4,2.6c0,0.2,0,0.4,0,0.5c-0.4,1.5-2.1,3.1-7.4,3c-5.8-0.1-11.8-2.5-17.2-1.9c-0.6,0.1-2.2,0.5-2.9,1.1 c0-0.4,0.7-0.9,1.1-1.2c0.3-0.3,0.6-0.5,0.9-0.7c4.7-8.8,14.8-15.8,18.1-18.3c1.5-1.2,2.5-2.1,3-2.7c0.1-0.2,0.3-0.3,0.6-0.6 c0.3,0,0.6,0.1,0.9,0.1c8.4,1.3,15,0.4,18.6-0.5c2.2-0.6,2.7-4.4,1-6c-3.8-3.6-11-9.1-21-10.5c-10-1.4-15.5,4.9-18.2,9.4 c-1.1,1.9,0.3,4.6,2.4,5.2c2.4,0.7,5.7,1,10.1,1.5c0,0.4,0,0.7-0.1,0.8c-1.7,2.9-4.5,5.9-12.5,9.7c-4,1.9-6.5,5.5-8,9.1 c-0.2,1-0.3,1.7-0.3,1.7l-1.2,3.3c0-2,0.2-3.1,0.4-3.7c0.7-6.9,1-15.1-0.5-19.3c-3-8.7-17.8-16.7-13.8-22.5 c15.4,1.3,24.4-5.1,27.7-7.8c1-0.8,2.1-3.1,1.2-4.1c-4-4.6-18-16.2-35.7-16.2c-16.7,0-24.9,13.2-26.9,20.3c-0.4,1.6,2.7,5.1,4,5.5 c5,1.8,9.6,0.6,18.5,1.1c0,0.1,0,0.2,0,0.3c-0.2,2.3-1,4.8,1.2,7.7c3.1,4.1,15.8,9.7,15.7,21.6c0,4.6-0.5,9-1.1,12.8v0c0,0,0,0,0,0 c0,0,0,0,0,0c0,0,0,0,0,0c-0.1,0.3-0.5,2.1-0.2,4.4c0,0-1.4-3.9-1.1-5.3c0-0.1,0-0.1,0-0.2c-2.3-1.9-5-3.5-8.1-4.1 c-9.4-1.9-14.5,2.1-16.2-1.7c-0.1-0.2,0.1-0.6,0.4-1.1c7.2,0.2,11.8-2.5,14-4.3c1-0.8,1-2.3,0.1-3.2c-21.2-20.1-30-4.5-33,3.8 c-0.5,1.5,0.8,3.1,2.4,2.8c2.2-0.4,5.6-0.5,10.9,0.2c0.2,0.5,0.4,0.8,0.4,1c-0.1,1.6,0.6,4.7,6,6.2c5.6,1.6,10.4-0.3,13.1,1.5 c1.2,0.3,3.4,0.6,4.7,0c-0.8,1.6-2.3,1.8-3.4,1.7c0.3,0.6,0.5,1.4,0.7,2.3c0.5,2.9,2.2,5.4,2.7,11.5c0.2,1.2,0.5,3,0.3,3.6 c-0.3,0.9-1.6,2.7-1.6,2.7c-0.4,1.2-1.8,2.8-2.2,3.3c-0.1,0.1-7.9,2.6-10.4,4.9c-3.3,3.1-6.6,6-8.9,9.9c-0.9,1.5-1.4,3.1-2.1,4.7 c0.2,0.1,0.5,0.3,0.7,0.4c3.3-4.2,5.6-9.5,10.5-12.7c0.3-0.2,0.9,0,1.4-0.1c-0.9,6-2.8,14.7-9,17.9c-0.8,0.4-1.6,2.7-2.2,3.5 c0.1,0,0.2,0.1,0.3,0.1c1.3-1,2.8-3.1,4.1-4c0.2,0.1,0.3,0.9,0.2,1.5c-0.2,1-0.7,1.8-0.9,2.9c1.8,0,1.7-2.6,2-3.5 c0.2-0.6-0.1-0.2,0.3-0.6c2.4-2.8,5.2-10.2,6.1-13.6c0.5-1.8,1.1-2.9,1.3-4.4c0.4-2.3,1.2-2.9,4.7-4.4c0.8-0.4,4.1-1.6,5.6-3.8 c0.3,0.4,1,0.8,1,1.1c0.3,3.8-1.1,7.8-2.2,11.3c-3.6,11.7-6.7,11.8-10.1,14c0.2,0.2,0.3,0.3,0.5,0.5c1.5-0.7,3-1.3,4.6-2 c0.1,0.1,0.3,0.1,0.4,0.2c-1,1.8-1.9,3.6-3.1,5.2c-1.7,2.3-2.7,5.9-1.9,8.3c0.6-2.2,1.3-4.3,1.9-6.5c0.3,0,0.6,0,0.9,0 c0.5,1.7,1,3.4,1.5,5.2c0.8-1.7,0.1-3.3-0.2-4.9c-0.1-0.7-0.4-1.5-0.2-2c0.6-1.5,1.4-3,2.2-4.4c0.2,0,0.3-0.1,0.5-0.1 c0.4,2,0.9,4,1.3,5.9c0.3-0.7,0.7-1.6,0.5-2.3c-0.3-1.6-0.9-3.2-1.3-4.8c-0.1-0.6-0.2-1.4,0.1-2c2.5-5.2,6.9-15.5,6.6-21.2 c-0.1-1.2,0.1-2.1,0.7-3c0,0,0,0,0,0s1.3-2.7,2.3-3.4c1-0.7,1-0.5,1-0.5l-0.4,0.8c0,0-0.7,0.8-0.9,2.1c0,0,0,0,0,0 c0.6,3.7-0.5,7.8-0.3,11.5c0,0.7,1.4,5.3,1.6,9.6c0.3,5.8-0.5,11.8-0.4,13.8c-0.5,1.6-2.3,3.2-3.7,5.1c-0.4,0.5-0.8,0.9-1.1,1.4 c0.1,0,0.2,0.1,0.3,0.1c1.5-1,3.3-3.5,4.9-4.5c0.2,2.9,0.1,7.2,0.3,10.1c0.3,0,0.6-0.8,0.8-0.8c0.2-2.8,0.2-17.3,0.4-20.2 c0.9,1.4,3.8,7,5.3,7.9c-0.1-0.1,0.7-0.1,0.5-0.3c-1.5-2.7-4.3-6.9-5-11.2c-0.5-6.1-0.1-9.8,0.1-12.1c0.3-3.3,0-4.6,0.4-8.2 c0-0.2,0.4-0.5,0.9-0.7c1.7,1.6,1.9,3,2.6,5.2c0.4,4.4,2.5,7.3,5,12.5c0.3,0.6,0.3,5,0.2,5.6c-0.4,1.6-0.9,3.2-1.2,4.8 c-0.1,0.7,0.2,1.5,0.4,2.3c0.7-4.4,0.8-4.7,2-5.8c1.8,2.7,2.8,5.6,1.5,8.9c-0.2,0.6,0.1,1.4,0.2,2.1c0.2,0,0.3,0,0.5,0 c0.2-1.8,0.1-3.7,2-5.2c0.5,1.3,0.9,2.4,1.2,3.5c0.3,1.1,0.5,2.2,0.7,3.3c0.7-3-0.1-6.3-1.9-8.6c-1.3-1.6-2.3-4.5-2.6-6.5 c1.6,0.7,3.4,2.1,4.9,2.8c0.2-0.2,0,0,0.2-0.2c-0.9-0.9-4.4-3.4-5.1-4.2c-2-6-2-4.8-3.1-8.4c-0.9-3-1.7-6.7-1.7-10.1c0,0,0,0,0,0 c0-0.1-0.6-2.3-0.7-2.4c-0.1-0.1-0.6-1.1-0.8-1.4c-0.2-0.3-0.1-0.5-0.2-0.8c0-0.4,0-0.9,0-1c0-0.2,0-0.7,0-0.7l-0.3-1.1 c0,0,0.7,0.7,0.8,1c0.1,0.2,0.4,1.3,0.4,1.4c0,0.2,0.2,0.3,0.3,0.9c0.2,0.5,0.5,1.6,0.5,1.6c1.5,3.2,5.4,7.4,8.2,9.6 c1.1,0.9,1.6,1.8,1.7,3.3c0.2,4,5.3,12.7,7.5,16.1c0.9,1.4,1.7,2.6,1.9,4.3c0.1,0.6,0,1.4,0.3,2c0.1-0.1,0.8-0.3,0.9-0.4 c-0.2-1-0.3-2-0.5-3c0.2-0.1,0.3-0.2,0.5-0.4c1.3,1,2.5,1.9,3.8,2.9c0.6-0.9-1-2.1-1.9-2.6c-6.1-3.2-9.6-14.1-10.6-20 c5.6,3.2,8.9,4.8,12.6,9.1c0.1-2.4-0.9-2.3-2.3-3.9c-3-3.4-6.6-5.2-9.9-8.4c-2.7-2.6-7.5-5.2-8.9-9c0,0,0-0.1,0-0.1c0,0,0,0,0,0 c-0.1-0.2-0.2-0.7-0.1-1.1c0.1-0.5-0.1-2.4-0.1-2.4s-0.8-1.9-1.3-2.5c0.7,0,0.9,0.4,0.9,0.4s1.2,1.4,1.3,1.8c0.1,0.4,0.1,2,0.3,2.4 c0.1,0.2,0.3,0.5,0.4,0.7c0,0,0,0,0,0c4.4-0.4,7.5,0.6,15.6,3.4c1.6,0.5,2.6,1.7,3.4,3.2c2,3.6,9.9,9.7,12,13.2 c0.1-3.7-7.7-8.8-9.1-12.2c0.2-0.3,0.1-0.8,0.3-0.7c3,1.7,17.8,7.9,21.1,8.3c-0.1-0.1,0.7-0.5,0.9-0.4c6.2-7.4,11.3-16.3,13.9-25.5 l-0.8,2.1c0.4-1.2,0.9-2.8,1.2-4c-0.1,0.4-0.3,1.5-0.4,2.1c1.9-5,3.8-17.1,3.4-24C152,60.8,142.8,38.4,139.3,34z M115.9,85.4 c-1.2-0.3-2.3-0.7-3.2-1.3c0,0-3-2.7-0.3-2.6c2.7,0.1,5.4,0.9,9.4,0c3.9-0.9,8.1,5.1,6,5c-0.9,0-3.1,0-5.6-0.1 c0.7-0.7,1.5-0.6,2.4-1.4c-1.5-2.6-9.6-1.6-9.6-1.6S115.5,84.4,115.9,85.4z M105.1,61.1c0,0.3,0.3,1.1,0.6,2.1 c-7.2-0.6-9.6-1-9.6-1s-3-2.1-0.5-3.3c2.4-1.1,5.7,0.8,10.7-0.9c5-1.7,21.3-0.8,23.4,2.3c2.1,3.2-0.3,3.8-0.3,3.8 s-5.7,1.6-15.1,0.4c2.1-1.6,4.8-3.5,4.2-3.8C114.9,59.4,112.2,57.9,105.1,61.1z M64.9,37c-7.6-0.3-10.7-0.2-11,0.5 c0.4,1.3,2.6,1.6,4.1,2.8c-6.4-0.3-11.2-0.2-13.5-0.2c-1.2,0-2.4-0.6-2.9-1.6c-0.7-1.2-0.9-2.9,2.2-3.7c5.3-1.3,15.3,0.6,28.6-1 c11.9-1.4,24-3.7,24.3,0.5c0.1,1.1-0.6,2.1-1.6,2.6c-2.7,1.4-10,4.5-20.5,4.4c1.9-1.1,4.2-2.5,5.6-3.8C79.2,34.5,71.2,37.3,64.9,37 z M42.8,72.8c-0.1,0.6,0.4,1.8,1,2.9c-7-0.8-9-0.8-9-0.8s-2.5-1.1,0.1-2.3s3.6,0.8,6-3.5c2.9-5.3,23.4,0.9,19,4.6 c0,0-2.9,2-8.5,2.4c1.5-1.5,3.2-3.1,2.9-3.5C52.6,70.2,43.5,70,42.8,72.8z M133.9,118.3c-0.1,0-0.1,0-0.2,0 c0.6-0.7,0.4-0.3,0.8-0.8C134.3,117.7,134.1,118,133.9,118.3z"></path> <path class="st0" d="M145.3,50l0.6,2.1c-0.1-0.5-0.3-1.1-0.5-1.6C145.4,50.3,145.4,50.2,145.3,50z"></path> <path class="st0" d="M54,6c1.1-0.3,4.1-1.2,5.3-1.5c-0.5,0.1-1,0.2-1.5,0.3C56.5,5.2,55.2,5.5,54,6z"></path> </g> <g> <path class="st0" d="M225.1,73.3c-1.2,0-2,0.5-2.6,1.6l-19.9,40.3l-19.9-40.3c-0.6-1-1.4-1.6-2.6-1.6c-0.8,0-1.5,0.3-2,0.8 c-0.6,0.6-0.8,1.2-0.8,2v45.5c0,0.8,0.3,1.5,0.8,2c0.6,0.6,1.2,0.8,2,0.8c0.8,0,1.5-0.3,2-0.8s0.8-1.2,0.8-2V87.9l17,35.1 c0.3,0.5,0.6,0.9,1.1,1.2c0.5,0.3,1,0.5,1.5,0.5c0.5,0,1-0.2,1.5-0.5c0.5-0.3,0.8-0.7,1.1-1.2l17-35.1v33.8c0,0.8,0.3,1.5,0.8,2 c0.6,0.6,1.2,0.8,2,0.8s1.5-0.3,2-0.8s0.8-1.2,0.8-2V76.2c0-0.8-0.3-1.5-0.8-2C226.6,73.6,225.9,73.3,225.1,73.3z"></path> <path class="st0" d="M241.1,73.3c-0.8,0-1.5,0.3-2.1,0.8c-0.6,0.6-0.8,1.2-0.8,2v45.5c0,0.8,0.3,1.5,0.8,2c0.6,0.6,1.3,0.8,2.1,0.8 c0.8,0,1.5-0.3,2-0.8s0.8-1.2,0.8-2V76.2c0-0.8-0.3-1.5-0.8-2C242.5,73.6,241.8,73.3,241.1,73.3z"></path> <path class="st0" d="M264.2,84.7c1.8-1.8,4-3.1,6.4-4.2c2.4-1,5.1-1.5,7.9-1.5c2.7,0,5.2,0.5,7.7,1.5c2.4,1,4.6,2.5,6.6,4.4 c0.6,0.6,1.2,0.8,2,0.8c0.8,0,1.5-0.3,2-0.8c0.6-0.6,0.9-1.2,0.9-2c0-0.8-0.3-1.5-0.9-2.1c-2.5-2.5-5.3-4.3-8.4-5.6 c-3.1-1.3-6.4-1.9-9.9-1.9c-3.6,0-7,0.6-10.1,1.9c-3.1,1.3-5.9,3.1-8.2,5.4c-2.3,2.3-4.2,5-5.6,8.1c-1.4,3.1-2,6.4-2,10 c0,3.6,0.7,7,2,10.1c1.4,3.1,3.2,5.9,5.6,8.2c2.3,2.3,5.1,4.2,8.2,5.6c3.1,1.4,6.5,2,10.1,2c3.5,0,6.8-0.6,9.9-1.9 c3.1-1.3,5.9-3.2,8.4-5.7c0.6-0.6,0.9-1.2,0.9-2c0-0.8-0.3-1.5-0.9-2c-0.6-0.6-1.2-0.9-2-0.9c-0.8,0-1.5,0.3-2,0.9 c-1.9,1.9-4.1,3.4-6.6,4.4c-2.4,1-5,1.5-7.7,1.5c-2.8,0-5.4-0.5-7.8-1.6c-2.4-1.1-4.6-2.5-6.4-4.3c-1.8-1.8-3.3-4-4.3-6.4 c-1.1-2.4-1.6-5.1-1.6-7.8c0-2.8,0.5-5.3,1.6-7.7C261,88.6,262.4,86.5,264.2,84.7z"></path> <path class="st0" d="M331.7,79.1c0.8,0,1.5-0.3,2.1-0.8c0.6-0.5,0.8-1.2,0.8-2c0-0.8-0.3-1.5-0.8-2c-0.6-0.6-1.3-0.8-2.1-0.8h-22.3 c-0.8,0-1.5,0.3-2.1,0.8c-0.6,0.6-0.8,1.2-0.8,2v45.3v0.1v0.1c0,0.8,0.3,1.5,0.8,2c0.6,0.6,1.3,0.8,2.1,0.8h22.3 c0.8,0,1.5-0.3,2.1-0.8c0.6-0.6,0.8-1.2,0.8-2c0-0.8-0.3-1.5-0.8-2.1c-0.6-0.6-1.3-0.8-2.1-0.8h-19.5v-17.5h16.4 c0.8,0,1.4-0.3,2-0.8c0.6-0.6,0.8-1.2,0.8-2c0-0.8-0.3-1.5-0.8-2c-0.6-0.5-1.2-0.8-2-0.8h-16.4V79.1H331.7z"></path> <path class="st0" d="M361.2,118.9h-14.5V76.2c0-0.8-0.3-1.5-0.8-2c-0.5-0.5-1.2-0.8-2-0.8c-0.8,0-1.5,0.3-2,0.8 c-0.6,0.5-0.8,1.2-0.8,2v45.5c0,0.8,0.3,1.5,0.8,2c0.6,0.6,1.2,0.8,2,0.8h17.3c0.8,0,1.5-0.3,2.1-0.8c0.6-0.6,0.8-1.2,0.8-2 c0-0.8-0.3-1.5-0.8-2C362.7,119.2,362,118.9,361.2,118.9z"></path> <path class="st0" d="M371.4,73.3c-0.8,0-1.5,0.3-2.1,0.8c-0.6,0.6-0.8,1.2-0.8,2v45.5c0,0.8,0.3,1.5,0.8,2c0.6,0.6,1.3,0.8,2.1,0.8 c0.8,0,1.5-0.3,2-0.8c0.6-0.6,0.8-1.2,0.8-2V76.2c0-0.8-0.3-1.5-0.8-2C372.9,73.6,372.2,73.3,371.4,73.3z"></path> <path class="st0" d="M432.3,89c-1.3-3.1-3.2-5.8-5.5-8.2c-2.3-2.3-5-4.1-8.2-5.5c-3.1-1.3-6.4-2-9.9-2c-3.6,0-6.9,0.7-10,2 c-3.1,1.3-5.8,3.2-8.2,5.5c-2.3,2.3-4.1,5-5.5,8.2c-1.3,3.1-2,6.4-2,9.9c0,3.6,0.7,6.9,2,10c1.3,3.1,3.2,5.8,5.5,8.2 c2.3,2.3,5,4.1,8.2,5.5c3.1,1.3,6.5,2,10,2c3.5,0,6.8-0.7,9.9-2c3.1-1.3,5.8-3.2,8.2-5.5c2.3-2.3,4.1-5,5.5-8.2c1.3-3.1,2-6.5,2-10 C434.3,95.4,433.6,92.1,432.3,89z M427,106.7c-1,2.4-2.5,4.5-4.3,6.4c-1.8,1.8-3.9,3.2-6.3,4.3c-2.4,1-5,1.6-7.7,1.6 c-2.7,0-5.3-0.5-7.7-1.6c-2.4-1-4.5-2.5-6.4-4.3c-1.8-1.8-3.2-3.9-4.3-6.4c-1-2.4-1.6-5-1.6-7.7s0.5-5.3,1.6-7.7 c1-2.4,2.5-4.5,4.3-6.3c1.8-1.8,3.9-3.2,6.4-4.3c2.4-1,5-1.6,7.7-1.6c2.7,0,5.3,0.5,7.7,1.6c2.4,1,4.5,2.5,6.3,4.3 c1.8,1.8,3.2,3.9,4.3,6.3c1,2.4,1.6,5,1.6,7.7S428,104.3,427,106.7z"></path> </g> <g> <path class="st0" d="M193.5,32.3c-2-1.2-4.3-1.8-7.1-1.8h-5.3h-3.8c0.1,4.3,0.2,8.6,0.2,12.8c0,4.2-0.1,8.5-0.2,12.8h3.8h4.9 c2.9,0,5.3-0.6,7.4-1.8c2-1.2,3.5-2.8,4.6-4.7c1-2,1.5-4,1.5-6.3c0-2.2-0.5-4.3-1.5-6.2C197,35.1,195.5,33.5,193.5,32.3z M194.7,49.1c-0.9,1.8-2.1,3.3-3.8,4.5c-1.7,1.1-3.7,1.7-6.1,1.7h-3.7c-0.1-4.9-0.1-8.9-0.1-12c0-3.1,0-7.1,0.1-12l4,0 c2.3,0,4.3,0.6,5.9,1.7c1.6,1.1,2.9,2.6,3.7,4.4c0.8,1.8,1.3,3.8,1.3,5.9C196,45.3,195.6,47.3,194.7,49.1z"></path> <path class="st0" d="M203.1,30.4c0.1,4.3,0.2,8.6,0.2,12.8c0,4.2-0.1,8.5-0.2,12.8h3.8c-0.1-3.5-0.1-7.8-0.1-12.8 c0-5.1,0-9.4,0.1-12.8H203.1z"></path> <path class="st0" d="M227.1,45.4c-0.8-0.7-1.7-1.3-2.6-1.7s-2.2-1-3.7-1.5c-1.9-0.7-3.4-1.4-4.5-2c-1.1-0.6-1.8-1.3-2.3-2.2 c-0.3-0.7-0.5-1.3-0.5-2c0-0.9,0.3-1.8,0.9-2.5c0.6-0.8,1.4-1.4,2.5-1.8c1-0.4,2.2-0.7,3.5-0.7c1.9,0,3.4,0.4,4.6,1.2 c1.2,0.8,2.1,1.8,2.6,3h0.7c-0.4-1.2-1.2-2.3-2.4-3.3c-1.2-0.9-2.8-1.5-4.8-1.6c-0.2,0-0.6,0-1.1,0c-1.9,0-3.6,0.3-5.1,1 s-2.7,1.5-3.5,2.6c-0.8,1.1-1.2,2.3-1.2,3.7c0,1.3,0.3,2.3,1,3.2c0.7,0.8,1.5,1.5,2.5,2c1,0.5,2.3,1.1,4,1.8 c1.8,0.7,3.2,1.3,4.2,1.9c1,0.6,1.9,1.3,2.5,2.1c0.5,0.7,0.8,1.5,0.8,2.3c0,0.8-0.2,1.6-0.7,2.3c-0.5,0.7-1.1,1.3-2,1.7 c-0.9,0.4-1.9,0.7-3.2,0.7c-2.4,0-4.4-0.6-5.8-1.7c-1.5-1.1-2.5-2.5-3-4.2l-0.7,0c0.3,1.9,1.3,3.5,3,4.8c1.7,1.3,4,1.9,7.1,1.9 c2,0,3.6-0.3,5-1c1.4-0.7,2.4-1.5,3-2.6c0.7-1,1-2.1,1-3.3c0-0.6-0.1-1.2-0.3-1.7C228.4,46.9,227.9,46.1,227.1,45.4z"></path> <path class="st0" d="M229,31.2h9.5c0.1,4.9,0.1,8.8,0.1,11.9c0,4.2-0.1,8.6-0.2,13h3.8c-0.1-4.4-0.2-8.7-0.2-13c0-3,0-7,0.1-11.9 h9.4v-0.8H229V31.2z"></path> <path class="st0" d="M274.3,52c-0.9-1.5-1.8-2.8-2.6-3.7c-0.8-0.9-1.9-1.6-3.3-2.1c1.9-0.5,3.4-1.5,4.4-2.8c1-1.4,1.5-2.9,1.5-4.6 c0-1.4-0.4-2.8-1.1-4.1c-0.8-1.3-1.9-2.3-3.4-3.1c-1.5-0.8-3.3-1.2-5.3-1.2h-6h-3.8c0.1,4.3,0.2,8.6,0.2,12.8 c0,4.2-0.1,8.5-0.2,12.8h3.8c-0.1-3.9-0.1-7.1-0.1-9.5h7.1h0.1c0.8,0.1,1.6,0.5,2.2,1c0.6,0.6,1.1,1.2,1.5,1.9 c0.4,0.7,0.8,1.6,1.3,2.7c0.4,0.9,0.7,1.5,0.9,1.9c0.2,0.4,0.4,0.7,0.7,1c0.7,1,1.8,1.5,3.3,1.5c0.9,0,1.8-0.2,2.7-0.5 c-0.8-0.2-1.4-0.7-2-1.3C275.6,54.1,275,53.2,274.3,52z M265.4,45.8c-0.4,0-0.7,0-0.9,0h-6.1v-3.7c0-3.9,0-7.5,0.1-10.8l5.3,0 c1.5,0,2.9,0.4,3.9,1.1c1.1,0.7,1.9,1.6,2.5,2.8c0.5,1.1,0.8,2.4,0.8,3.7c0,1.1-0.2,2.2-0.6,3.3c-0.4,1-1.1,1.9-1.9,2.6 C267.5,45.3,266.5,45.7,265.4,45.8z"></path> <path class="st0" d="M280.7,30.4c0.1,4.3,0.2,8.6,0.2,12.8c0,4.2-0.1,8.5-0.2,12.8h3.8c-0.1-3.5-0.1-7.8-0.1-12.8 c0-5.1,0-9.4,0.1-12.8H280.7z"></path> <path class="st0" d="M300.7,31.2h9.4v-0.8h-22.7v0.8h9.5c0.1,4.9,0.1,8.8,0.1,11.9c0,4.2-0.1,8.6-0.2,13h3.8 c-0.1-4.4-0.2-8.7-0.2-13C300.6,40.1,300.6,36.1,300.7,31.2z"></path> <path class="st0" d="M333,37c-1.1-2.1-2.6-3.9-4.6-5.2c-2-1.3-4.5-2-7.3-2c-0.5,0-0.9,0-1.1,0c-2.6,0.2-4.8,0.9-6.6,2.1 c-1.8,1.2-3.2,2.8-4.1,4.6c-0.9,1.9-1.3,3.9-1.3,6c0,2.4,0.5,4.6,1.6,6.8c1.1,2.1,2.6,3.9,4.7,5.2c2.1,1.3,4.5,2,7.3,2 c0.7,0,1.5-0.1,2.4-0.2c2.3-0.3,4.2-1.1,5.8-2.3c1.6-1.2,2.8-2.8,3.6-4.6s1.2-3.7,1.2-5.8C334.6,41.4,334.1,39.1,333,37z M330.3,50 c-0.5,1.6-1.4,2.9-2.5,4c-1.1,1.1-2.4,1.7-4,1.9c-0.5,0.1-0.9,0.1-1.4,0.1c-2.2,0-4.1-0.7-5.8-2.1c-1.7-1.4-2.9-3.2-3.8-5.4 c-0.9-2.2-1.3-4.5-1.3-6.9c0-2,0.3-3.8,0.9-5.4c0.6-1.6,1.6-3,2.9-4c1.3-1,2.9-1.6,4.8-1.7c2.2-0.1,4.2,0.5,5.8,1.8 c1.7,1.4,2.9,3.2,3.8,5.5c0.9,2.3,1.3,4.6,1.3,7.1C331.1,46.6,330.8,48.4,330.3,50z"></path> </g> </svg> 